<svg height="56" xmlns="http://www.w3.org/2000/svg" viewBox="0 0 45 56" width="45" style="background-color: black;"><title>D5AC9F47-D032-4D48-9169-836669BE0718</title><path xmlns="http://www.w3.org/2000/svg" fill="#FFF" fill-rule="evenodd" d="M.211 50.605c-.092.05-.211-.008-.211-.102V5.452c0-.096.122-.154.213-.101l9.43 7.164a.12.12 0 0 1 .063.102v31.04c0 .042-.024.08-.065.102l-9.43 6.846zm22.639 5.317c-.054.125-.267.091-.267-.043V4.602c0-.13.203-.168.264-.05l3.56 7.005a.107.107 0 0 1 .011.049v35.97a.104.104 0 0 1-.009.043l-3.559 8.303zm11.286-4.49l-4.49-7.035a.108.108 0 0 1-.018-.06V8.55c0-.018.005-.035.013-.051L34.131.07c.063-.117.263-.078.263.051v51.253c0 .124-.189.167-.258.059zM12.884 52.99c-.085.082-.24.03-.24-.081V3.213c0-.11.155-.163.24-.081l6.742 7.635a.11.11 0 0 1 .036.081v34.425c0 .03-.013.059-.036.081l-6.742 7.635zm31.887-2.55l-7.26-6.777a.116.116 0 0 1-.047-.09V12.637c0-.035.017-.068.047-.091l7.26-6.74c.09-.068.229-.012.229.092v44.45c0 .104-.14.159-.229.09zM58.258"/></svg>